<svg width="16" height="14" viewBox="0 0 16 14" fill="none" xmlns="http://www.w3.org/2000/svg">
<path d="M15.5 13.333C15.4102 13.3329 15.3221 13.3087 15.2449 13.2628C15.1677 13.217 15.1043 13.1511 15.0614 13.0723L15.0474 13.047C14.3117 11.7197 13.2342 10.6135 11.9268 9.84323C10.6193 9.07292 9.12953 8.66656 7.61202 8.66631H6.66669V11.4996C6.66662 11.5978 6.63764 11.6938 6.58336 11.7757C6.52908 11.8575 6.4519 11.9215 6.36146 11.9598C6.27102 11.998 6.17132 12.0088 6.0748 11.9908C5.97827 11.9727 5.8892 11.9267 5.81869 11.8583L0.152023 6.35831C0.103793 6.31185 0.0654278 6.25615 0.0392229 6.19452C0.0130181 6.13289 -0.000488281 6.06661 -0.000488281 5.99965C-0.000488281 5.93268 0.0130181 5.8664 0.0392229 5.80477C0.0654278 5.74315 0.103793 5.68744 0.152023 5.64098L5.81869 0.140979C5.8892 0.0726344 5.97827 0.0265643 6.0748 0.0085171C6.17132 -0.00953014 6.27102 0.00124458 6.36146 0.0394967C6.4519 0.0777489 6.52908 0.141785 6.58336 0.223616C6.63764 0.305447 6.66662 0.401449 6.66669 0.499646V3.33431C11.8287 3.42365 16 7.65031 16 12.833C16 12.9656 15.9473 13.0928 15.8536 13.1865C15.7598 13.2803 15.6326 13.333 15.5 13.333ZM6.16669 7.66631H7.61202C10.396 7.66631 13.0047 8.88565 14.788 10.9403C13.9254 7.16098 10.5367 4.33298 6.50002 4.33298H6.16669C6.03408 4.33298 5.90691 4.2803 5.81314 4.18653C5.71937 4.09276 5.66669 3.96559 5.66669 3.83298V1.68165L1.21802 5.99965L5.66669 10.3176V8.16631C5.66669 8.0337 5.71937 7.90653 5.81314 7.81276C5.90691 7.71899 6.03408 7.66631 6.16669 7.66631Z" fill="#2563EB"/>
</svg>
