<svg width="14" height="14" viewBox="0 0 14 14" fill="none" xmlns="http://www.w3.org/2000/svg">
<path fill-rule="evenodd" clip-rule="evenodd" d="M0.260381 13.2501C-0.0867514 12.903 -0.0867515 12.3402 0.260381 11.993L10.4756 1.77781L2.56496 1.7778C2.07404 1.7778 1.67607 1.37984 1.67607 0.888916C1.67608 0.397995 2.07404 2.65377e-05 2.56496 2.7212e-05L12.6216 2.99094e-05C13.1125 2.85607e-05 13.5105 0.397998 13.5105 0.888918L13.5105 10.9455C13.5105 11.4365 13.1125 11.8344 12.6216 11.8344C12.1307 11.8344 11.7327 11.4365 11.7327 10.9455L11.7327 3.03489L1.51746 13.2501C1.17033 13.5973 0.607514 13.5973 0.260381 13.2501Z" fill="#2563EB"/>
</svg>
