<svg width="15" height="11" viewBox="0 0 15 11" fill="none" xmlns="http://www.w3.org/2000/svg">
<path d="M4.84324 10.8283C4.63242 10.8284 4.42366 10.7869 4.2289 10.7061C4.03415 10.6254 3.85723 10.5071 3.70828 10.3579L0.276913 6.92779C-0.0923043 6.55845 -0.0923043 5.95976 0.276913 5.59043C0.646249 5.22121 1.24494 5.22121 1.61428 5.59043L4.84324 8.81939L13.3857 0.276913C13.7551 -0.0923043 14.3538 -0.0923043 14.7231 0.276913C15.0923 0.646249 15.0923 1.24494 14.7231 1.61428L5.97821 10.3579C5.82926 10.5071 5.65234 10.6254 5.45758 10.7061C5.26283 10.7869 5.05406 10.8284 4.84324 10.8283Z" fill="#2563EB"/>
</svg>
