<svg width="24" height="24" viewBox="0 0 24 24" fill="none" xmlns="http://www.w3.org/2000/svg">
<path d="M9.46387 1.79492C10.8575 0.4015 13.1425 0.4015 14.5361 1.79492L22.2051 9.46387C23.5985 10.8575 23.5985 13.1425 22.2051 14.5361L14.5361 22.2051C13.1425 23.5986 10.8575 23.5986 9.46387 22.2051L1.79492 14.5361C0.401541 13.1425 0.401492 10.8575 1.79492 9.46387L9.46387 1.79492Z" stroke="#2563EB" stroke-width="1.5" stroke-miterlimit="22.9256" stroke-linecap="round" stroke-linejoin="round"/>
<path d="M8.73613 8.73577C10.5387 6.93336 13.4612 6.93384 15.2638 8.73635C17.0661 10.5389 17.0661 13.4607 15.2639 15.2633C13.4614 17.0658 10.5389 17.0664 8.73625 15.2641C6.9336 13.4615 6.93355 10.5384 8.73613 8.73577Z" stroke="#2563EB" stroke-width="1.5" stroke-miterlimit="22.9256" stroke-linecap="round" stroke-linejoin="round"/>
<path d="M12.0005 11.2871C12.3943 11.2873 12.7134 11.6071 12.7134 12.001C12.7131 12.3946 12.3941 12.7136 12.0005 12.7139C11.6066 12.7139 11.2869 12.3948 11.2866 12.001C11.2866 11.607 11.6065 11.2871 12.0005 11.2871Z" stroke="#2563EB" stroke-width="1.5" stroke-miterlimit="22.9256" stroke-linecap="round" stroke-linejoin="round"/>
</svg>
