<svg width="16" height="15" viewBox="0 0 16 15" fill="none" xmlns="http://www.w3.org/2000/svg">
<path d="M10.2354 0.0126953L11.7725 1.6748L11.7822 1.66699L11.7686 1.67871H14.3271C14.7448 1.67877 15.0975 1.82408 15.3867 2.11328C15.6759 2.40249 15.8212 2.75524 15.8213 3.17285V12.6602C15.8213 13.0779 15.676 13.4314 15.3867 13.7207C15.0976 14.0097 14.7446 14.1542 14.3271 14.1543H1.50684C1.08918 14.1543 0.735528 14.0099 0.446289 13.7207C0.15702 13.4314 0.0126953 13.0779 0.0126953 12.6602V3.17285C0.0127584 2.75532 0.157192 2.40246 0.446289 2.11328C0.735558 1.82401 1.0891 1.67871 1.50684 1.67871H4.05078V1.68555L4.06055 1.6748L5.59863 0.0126953H10.2354ZM6.12891 1.24121L4.60352 2.9043H1.50684C1.4292 2.9043 1.36408 2.92906 1.31348 2.97949C1.26289 3.03008 1.23736 3.09517 1.2373 3.17285V12.6602C1.2373 12.738 1.26283 12.8029 1.31348 12.8535C1.3641 12.9041 1.42911 12.9287 1.50684 12.9287H14.3271C14.4048 12.9287 14.4699 12.9041 14.5205 12.8535C14.571 12.8029 14.5957 12.7379 14.5957 12.6602V3.17285C14.5956 3.09517 14.5711 3.03008 14.5205 2.97949C14.4699 2.9289 14.4048 2.90436 14.3271 2.9043H11.2295L9.70508 1.24121L9.69531 1.25L9.70898 1.2373H6.1377V1.23145L6.12891 1.24121ZM7.91699 4.5C8.86977 4.50008 9.67734 4.83074 10.3398 5.49316C11.0025 6.15578 11.334 6.96399 11.334 7.91699C11.3339 8.86985 11.0024 9.67731 10.3398 10.3398C9.67731 11.0024 8.86985 11.3339 7.91699 11.334C6.96399 11.334 6.15578 11.0025 5.49316 10.3398C4.83074 9.67734 4.50008 8.86977 4.5 7.91699C4.5 6.96399 4.83055 6.15578 5.49316 5.49316C6.15578 4.83055 6.96399 4.5 7.91699 4.5ZM7.91699 5.72461C7.2984 5.72461 6.77764 5.93511 6.35645 6.35645C5.93511 6.77764 5.72461 7.2984 5.72461 7.91699C5.72468 8.53536 5.93529 9.05547 6.35645 9.47656C6.77764 9.8979 7.2984 10.1084 7.91699 10.1084C8.53544 10.1083 9.05544 9.89782 9.47656 9.47656C9.89782 9.05544 10.1083 8.53544 10.1084 7.91699C10.1084 7.2984 9.8979 6.77764 9.47656 6.35645C9.05547 5.9353 8.53536 5.72468 7.91699 5.72461Z" fill="white" stroke="#DBEAFE" stroke-width="0.025"/>
</svg>
